<svg width="28" height="28" viewBox="0 0 28 28" fill="none" xmlns="http://www.w3.org/2000/svg">
<path fill-rule="evenodd" clip-rule="evenodd" d="M14.0455 3.43801C14.4682 3.49713 14.9619 3.57695 15.3758 3.53261C15.5591 3.59173 15.7512 3.61539 15.9434 3.63904C15.9434 3.61145 15.9493 3.59765 15.9611 3.59765C15.9611 3.61538 15.9611 3.62721 15.9611 3.63904C16.8746 3.80754 17.9536 4.0263 18.808 4.38401C19.0327 4.4254 19.2928 4.51704 19.4495 4.53182C19.5204 4.68259 20.8921 5.2768 21.309 5.5399C21.4686 5.66702 21.8174 6.03359 21.98 6.08089C21.98 6.09863 21.98 6.11046 21.98 6.12229C22.4767 6.13707 23.0502 7.65658 23.4995 7.74232C23.4936 7.95812 23.9282 8.18575 23.9785 8.3986C23.9962 8.3986 24.008 8.3986 24.0198 8.3986C24.0465 8.47547 24.4751 9.09923 24.6554 9.42146C24.754 9.62643 24.8397 9.79001 24.9126 9.9122C24.9126 9.9122 24.9363 9.91811 24.9481 9.91811C24.954 9.94176 24.9511 9.96541 24.9511 9.98315C25.362 10.8198 26.1809 13.1729 25.9651 13.9357C25.4448 14.116 25.3206 14.0835 24.6111 14.0598C24.1824 13.9889 23.7597 13.9327 23.3251 13.8972C23.3251 13.909 20.9867 13.6785 20.5492 13.6548C19.3844 13.442 18.0778 13.4804 16.8835 13.4035C16.7386 13.3769 16.1799 13.3414 16.0705 13.3533C15.627 13.1789 13.9213 13.3148 13.4867 13.3444C13.4808 13.3621 13.4749 13.374 13.469 13.3858C12.322 13.1109 8.78333 13.4094 7.91123 13.4745C7.91123 13.4863 7.90532 13.4981 7.89941 13.51C7.83733 13.4449 7.00071 13.5454 6.85585 13.5868C6.38088 13.6065 6.12172 13.6233 6.07836 13.6371C6.03401 13.5898 5.17966 13.6903 5.12645 13.6932C5.12645 13.7051 5.12053 13.7169 5.11462 13.7287C5.0348 13.6459 3.86117 13.7642 3.66901 13.7938C3.52711 13.9889 2.36826 13.847 2.09038 13.8588C2.0884 13.8233 2.0687 13.7819 2.03125 13.7346C2.08446 12.1323 3.64832 8.64101 4.99046 7.58858C5.17079 7.5945 5.1501 7.68319 5.26243 7.82509C6.16705 7.99951 7.3525 7.69501 7.78116 8.78587C7.86098 9.48946 8.08565 10.2196 8.11522 10.8759C8.30737 11.4258 8.58821 11.4376 9.76185 11.3135C10.0043 11.275 10.1077 11.139 10.223 10.7459C10.2585 9.87968 10.155 8.80657 10.4122 8.19462C10.4832 8.17393 10.7049 8.11775 11.1542 8.04089C11.5208 7.9256 12.5407 7.75118 12.7536 7.4053C12.7654 7.05646 12.7831 6.66033 12.5821 6.3647C12.1446 6.31149 11.1897 6.10159 10.6192 6.10159C10.5512 5.65224 10.1728 4.46974 10.087 4.1889C10.019 4.11795 9.93331 4.01152 9.84758 4.02926C10.1255 3.39662 10.7374 3.43506 11.6125 3.43506C12.4106 3.42619 13.2147 3.44688 14.01 3.47644C14.0277 3.46461 14.0455 3.45575 14.0573 3.44392L14.0455 3.43801ZM14.8969 8.58484C14.619 8.49615 14.5037 8.4459 14.1548 8.46068C13.7173 8.61441 13.4335 8.78587 13.2 9.33869C13.1941 9.65993 13.199 9.9122 13.2147 10.0955C13.3182 10.4532 13.466 10.7429 13.6493 11.077C13.741 11.3253 13.9863 11.5943 14.1548 11.7983C14.5835 12.1915 15.1008 12.2654 15.6389 12.0437C15.6448 12.0082 15.6537 11.9727 15.6537 11.9402C15.7423 11.9254 15.8902 11.7953 15.9759 11.7421C16.4371 11.1331 16.0557 10.1605 15.8133 9.54858C15.6359 9.24113 15.5679 9.19679 15.5591 9.1554C15.3758 8.91595 15.1304 8.76813 14.8969 8.5878V8.58484Z" fill="white"/>
<path fill-rule="evenodd" clip-rule="evenodd" d="M8.17288 4.87474C8.10193 5.29157 8.04872 5.63745 7.95412 6.06611C7.90978 6.11045 7.70284 6.32921 7.58163 6.30852C7.58163 6.30261 6.35479 6.37356 6.21289 6.30852C6.23654 5.53398 7.55503 5.0728 8.1315 4.69736C8.09602 4.66188 8.1315 4.69736 8.17288 4.87474Z" fill="white"/>
<path fill-rule="evenodd" clip-rule="evenodd" d="M14.9908 13.7996C15.4106 13.977 15.6442 14.1514 15.8334 14.5712C15.8866 15.3044 15.588 16.4957 14.7307 16.8239C14.4469 16.951 14.3375 16.9658 14.1365 17.0012C13.1373 16.9687 13.1225 16.1351 13.1106 16.141C13.1047 15.9902 13.09 15.8365 13.0781 15.6798C13.1018 14.9585 13.4004 14.5505 13.9443 14.0834C14.2754 13.9533 14.6361 13.7908 14.9908 13.7967V13.7996Z" fill="white"/>
<path fill-rule="evenodd" clip-rule="evenodd" d="M23.2421 14.2401C23.2421 14.2401 23.2539 14.2638 23.2598 14.2756C23.446 14.2815 23.4549 14.3938 23.5318 14.5535C23.9575 14.5683 24.123 14.3199 24.5724 14.3938C24.6157 14.5003 24.6463 14.5614 24.664 14.5771C24.7527 15.6946 23.7683 15.869 23.0115 16.1469C22.6597 16.1085 21.8112 16.4691 21.4831 16.611C21.3264 16.9185 19.7212 17.421 19.3546 17.6191C19.056 17.6664 18.784 17.9325 18.4795 17.9975C17.9445 18.3641 17.5897 18.6893 17.229 19.2332C17.1906 19.3663 17.0103 19.6737 16.9216 19.7476C16.3392 21.2583 16.8566 24.0046 15.9283 24.7289C15.8189 24.6846 15.476 24.7762 15.3784 24.8264C15.1419 24.8176 13.2765 25.128 13.0992 24.9388C12.7149 24.8974 12.2862 24.9063 11.8989 24.9477C11.8457 24.9477 11.6329 24.9417 11.6329 24.723C11.7245 22.8339 11.491 21.004 11.2781 19.1327C11.2072 18.8755 11.1421 18.6272 10.9322 18.4882C10.9263 18.506 10.1873 18.0271 10.1015 17.897C9.05206 17.2466 9.01658 17.2052 8.9545 17.1845C8.8599 17.0308 8.54062 16.8682 8.36325 16.7588C8.22431 16.7204 8.14449 16.543 7.98781 16.5135C7.89616 16.4514 7.12458 15.8572 6.9472 15.937C6.89695 15.8306 5.97164 15.5261 5.74697 15.4315C5.47204 15.3871 5.1498 15.195 5.09364 14.9141C4.96652 14.9112 4.88079 14.4293 4.91626 14.314C5.26214 14.2845 5.77949 14.4471 6.12241 14.4116C6.09876 14.2756 5.93617 14.0746 5.93912 13.9386C6.00416 13.9001 6.02485 13.8558 6.08398 13.8115C6.3796 13.8499 6.64567 14.0805 6.83782 14.2904C7.52072 14.7782 8.31595 15.2009 9.10527 15.4995C9.11709 15.4936 9.12301 15.4817 9.12892 15.4699C9.14074 15.4877 9.14666 15.4995 9.14961 15.5113C9.42454 15.6355 10.5864 16.1292 10.6662 16.3124C10.8495 16.3834 11.0741 16.5194 11.1539 16.5371C11.1599 16.5253 11.1658 16.5135 11.1717 16.5016C11.1776 16.5253 11.1806 16.5489 11.1865 16.5667C11.4791 16.7204 11.8694 16.8564 12.1325 17.0515C12.4606 17.152 12.8597 17.2378 13.1524 17.4151C14.057 17.492 14.9202 17.3383 15.8041 17.1461C15.9815 17.0929 16.2476 16.9687 16.4397 16.9746C16.6408 16.9185 17.1315 16.8121 17.2704 16.6347C17.4567 16.6229 17.6045 16.5342 17.776 16.4603C17.7819 16.4425 17.7878 16.4248 17.7878 16.4071C17.7996 16.4189 17.8055 16.4307 17.8114 16.4366C18.6007 16.1942 19.3812 15.9459 20.1646 15.6975C20.1587 15.6857 20.5105 15.5911 20.5548 15.5586C20.6346 15.6414 21.6841 15.1772 21.8319 15.1152C22.0684 14.9999 22.5148 14.8698 22.6449 14.6244C22.6508 14.6363 22.6567 14.6481 22.6626 14.654C22.8814 14.5003 23.0676 14.2904 23.248 14.2372L23.2421 14.2401Z" fill="white"/>
<path fill-rule="evenodd" clip-rule="evenodd" d="M2.11639 15.7123C2.27011 15.8158 2.3322 16.0848 2.5214 16.138C3.39349 17.0101 5.17611 16.9421 6.26401 17.2141C6.45912 17.2791 7.36078 17.5068 7.52337 17.7196C7.8929 17.8881 8.30382 18.2163 8.6497 18.3434C8.97194 18.9347 9.24687 18.7543 9.21731 19.6708C9.32669 20.2797 9.4272 20.8887 9.53067 21.4977C9.53067 21.7145 9.54742 21.9845 9.58092 22.3077C9.58092 22.9256 9.66961 23.7504 9.45085 24.3416C9.20844 24.454 9.25278 24.4126 8.93055 24.4008C8.67631 24.3002 8.40138 24.2086 8.17966 24.049C7.73918 23.8479 7.39625 23.6321 6.98829 23.4045C6.66606 23.2951 6.41478 22.9611 6.07481 22.8576C6.07481 22.7719 5.43922 22.3491 5.30323 22.1865C4.91005 21.9973 4.85683 21.5805 4.42818 21.3499C4.43113 21.2228 4.22715 21.0572 4.17985 20.9272C3.68025 20.3625 3.3728 19.6146 3.05057 18.9465C3.02396 18.8341 2.9944 18.7011 2.90275 18.6272C2.5953 17.8438 2.27898 17.0633 2.06022 16.2474C2.04248 16.0967 1.9065 15.7478 2.11343 15.7064L2.11639 15.7123Z" fill="white"/>
<path fill-rule="evenodd" clip-rule="evenodd" d="M25.2422 16.6702C25.2304 17.0309 25.0294 17.3502 24.9082 17.6783C24.8195 18.2607 24.1809 19.387 23.7966 19.8246C23.6666 20.3005 22.9511 20.67 22.7826 21.1312C22.7767 21.1253 22.7708 21.1194 22.759 21.1135C22.7117 21.1696 22.422 21.486 22.419 21.5273C22.4131 21.5273 22.4013 21.5273 22.3895 21.5214C22.1796 21.8496 21.4908 22.568 21.1685 22.7158C20.9084 23.038 20.4768 23.2124 20.1782 23.4933C19.5071 23.8007 19.043 24.1791 18.3217 24.3358C18.3217 24.3476 18.3157 24.3594 18.3098 24.3653C18.3039 24.3535 18.298 24.3417 18.2891 24.324C18.2773 24.3299 18.2655 24.3358 18.2537 24.3358C18.1315 24.1643 18.0576 24.051 18.0319 23.9958C18.0112 23.7564 17.9846 23.5169 17.9551 23.2775C17.9846 22.3462 18.1236 21.5185 18.3719 20.6198C18.5493 20.1882 18.7947 19.6501 19.1346 19.3279C19.2824 18.9318 20.0806 18.4351 20.4472 18.1838C21.1124 17.8143 21.8189 17.5482 22.5639 17.3975C22.6999 17.3442 22.8447 17.359 22.9807 17.2881C23.7109 17.362 24.5653 16.9067 25.2422 16.6732V16.6702Z" fill="white"/>
</svg>
