<svg width="28" height="28" viewBox="0 0 28 28" fill="none" xmlns="http://www.w3.org/2000/svg">
<path d="M12.648 9.81339C12.6103 9.22038 13.0627 8.71307 13.6523 8.67536C13.6934 8.67536 13.7346 8.67536 13.7757 8.67536C14.5058 8.66851 14.7423 8.92902 14.7423 9.73455V12.5625C15.2188 12.3362 15.7364 12.2094 16.2643 12.1888C18.2593 12.1888 19.7778 13.2995 19.8806 15.6098C19.9731 17.687 18.4272 19.1404 16.3431 19.1404C13.9265 19.1404 12.7474 17.807 12.6994 15.147L12.6445 9.81681L12.648 9.81339ZM14.7458 15.6783C14.7286 16.4324 15.3251 17.0597 16.0792 17.0803C16.1272 17.0803 16.1752 17.0803 16.2266 17.0769C17.1658 17.0769 17.7862 16.6381 17.7725 15.5961C17.7622 14.6808 17.2275 14.153 16.1717 14.153C15.116 14.153 14.7458 14.9105 14.7458 15.6852V15.6783Z" fill="white"/>
<path d="M10.2603 11.356C10.2638 13.2447 9.19428 13.9028 9.19428 13.9028C10.0341 14.5678 10.466 15.6201 10.3392 16.6827C10.1335 18.5098 9.17371 19.3016 8.11453 19.6786C7.16846 20.0146 5.96873 20.4293 5.48884 19.2604C5.00895 18.0916 6.24981 18.119 6.99707 17.8688C7.69291 17.6391 8.14195 17.1009 8.04255 16.3605C7.92943 15.531 7.33985 15.0682 6.50347 14.986C5.84876 14.9209 4.87869 15.1162 4.87869 14.0845C4.87869 13.0527 5.76992 13.2447 6.3595 13.1007C7.19931 12.895 8.02198 12.8128 8.05283 11.7913C8.09396 10.5299 7.08962 10.4579 6.15383 10.3036C5.50255 10.1974 4.68331 9.98827 4.78614 9.15531C4.89926 8.24695 5.77335 8.04471 6.53432 8.1544C8.60813 8.44919 10.2535 9.46724 10.2603 11.356Z" fill="white"/>
<path d="M25.8839 8.3085C25.8839 8.3085 26.9226 8.19196 26.9226 9.36426C26.9226 10.5366 25.8839 10.372 25.8839 10.372H23.2925V12.2265C23.7861 12.3259 24.2729 12.4493 24.7493 12.5967C26.5969 13.2205 27.3716 14.5848 27.0871 16.4666C26.806 18.3211 25.3492 19.0169 23.745 19.3391C23.0183 19.4865 21.5786 19.8087 21.4964 18.5884C21.4244 17.5361 22.5727 17.591 23.296 17.4847C24.242 17.3476 25.1195 17.0699 25.2018 15.9045C25.2841 14.7253 24.4271 14.2866 23.5393 14.0638C22.9052 13.9301 22.2608 13.8478 21.6129 13.8238C21.5341 13.8238 21.4587 13.7895 21.4038 13.7313C21.3627 13.6764 21.3387 13.6079 21.3421 13.5393V8.33935L25.8805 8.31193L25.8839 8.3085Z" fill="white"/>
<path d="M0.00171447 13.2961C0.00171447 11.8872 -0.00514226 10.4784 0.0085689 9.06959C0.0154245 8.53143 0.234804 8.06525 0.944357 8.00698C1.76017 7.94185 2.24692 8.33262 2.25034 9.01475C2.27434 12.0826 2.26406 15.1471 2.25034 18.2149C2.25034 18.8148 1.75674 19.1302 1.1466 19.1439C0.327353 19.1644 -0.00514111 18.7051 0.00171447 18.0161C0.0119978 16.4428 0.0017152 14.866 0.00514299 13.2926L0.00171447 13.2961Z" fill="white"/>
</svg>
