<svg width="28" height="28" viewBox="0 0 28 28" fill="none" xmlns="http://www.w3.org/2000/svg">
<path d="M6.65891 23.2167C6.13372 23.2167 5.6898 23.0353 5.32716 22.6727C4.96452 22.3101 4.7832 21.8661 4.7832 21.341V6.65903C4.7832 6.13384 4.96452 5.68992 5.32716 5.32728C5.6898 4.96465 6.13372 4.78333 6.65891 4.78333H21.3408C21.866 4.78333 22.3099 4.96465 22.6726 5.32728C23.0352 5.68992 23.2165 6.13384 23.2165 6.65903V14.9782C23.2165 15.1935 23.1445 15.3736 23.0004 15.5187C22.8565 15.664 22.6778 15.7366 22.4643 15.7366C22.2508 15.7366 22.0701 15.664 21.9221 15.5187C21.774 15.3736 21.6999 15.1935 21.6999 14.9782V6.65903C21.6999 6.5692 21.6624 6.48695 21.5876 6.41228C21.5129 6.33742 21.4307 6.29999 21.3408 6.29999H6.65891C6.56908 6.29999 6.48683 6.33742 6.41216 6.41228C6.3373 6.48695 6.29987 6.5692 6.29987 6.65903V21.341C6.29987 21.4308 6.3373 21.513 6.41216 21.5877C6.48683 21.6626 6.56908 21.7 6.65891 21.7H13.2191C13.4343 21.7 13.6146 21.7719 13.7598 21.9158C13.9049 22.0599 13.9774 22.2387 13.9774 22.4522C13.9774 22.6657 13.9049 22.8464 13.7598 22.9944C13.6146 23.1426 13.4343 23.2167 13.2191 23.2167H6.65891ZM20.098 22.4717L24.4281 18.1822C24.5757 18.028 24.7509 17.9491 24.9537 17.9454C25.1567 17.9417 25.339 18.0206 25.5006 18.1822C25.662 18.3436 25.7427 18.5239 25.7427 18.7232C25.7427 18.9224 25.662 19.0994 25.5006 19.2544L20.7776 23.966C20.5863 24.1575 20.3665 24.2484 20.1182 24.2387C19.8699 24.2289 19.6499 24.1283 19.4584 23.9368L17.1589 21.6775C16.9899 21.5276 16.9055 21.3497 16.9055 21.1438C16.9055 20.9377 16.9861 20.756 17.1475 20.5987C17.3091 20.4414 17.4902 20.3627 17.6909 20.3627C17.8914 20.3627 18.0715 20.4435 18.2314 20.6051L20.098 22.4717ZM10.1656 14.6545C10.3435 14.4807 10.4325 14.2645 10.4325 14.0061C10.4325 13.7477 10.3456 13.5295 10.1717 13.3516C9.99791 13.1737 9.78179 13.0847 9.52337 13.0847C9.26495 13.0847 9.04679 13.1717 8.86887 13.3455C8.69076 13.5193 8.6017 13.7355 8.6017 13.9939C8.6017 14.2523 8.68872 14.4705 8.86274 14.6484C9.03658 14.8263 9.2527 14.9152 9.51112 14.9152C9.76934 14.9152 9.98751 14.8283 10.1656 14.6545ZM10.1656 10.2392C10.3435 10.0652 10.4325 9.84909 10.4325 9.59087C10.4325 9.33245 10.3456 9.11428 10.1717 8.93637C9.99791 8.75826 9.78179 8.6692 9.52337 8.6692C9.26495 8.6692 9.04679 8.75612 8.86887 8.92995C8.69076 9.10398 8.6017 9.3202 8.6017 9.57862C8.6017 9.83684 8.68872 10.055 8.86274 10.2331C9.03658 10.411 9.2527 10.5 9.51112 10.5C9.76934 10.5 9.98751 10.4131 10.1656 10.2392ZM18.5948 14.7583C18.81 14.7583 18.9902 14.6863 19.1352 14.5422C19.2805 14.3983 19.3531 14.2196 19.3531 14.0061C19.3531 13.7926 19.2805 13.6119 19.1352 13.4639C18.9902 13.3157 18.81 13.2417 18.5948 13.2417H13.4705C13.2552 13.2417 13.075 13.3137 12.9297 13.4578C12.7847 13.6017 12.7122 13.7804 12.7122 13.9939C12.7122 14.2074 12.7847 14.3881 12.9297 14.5361C13.075 14.6842 13.2552 14.7583 13.4705 14.7583H18.5948ZM18.5948 10.3428C18.81 10.3428 18.9902 10.2708 19.1352 10.127C19.2805 9.98306 19.3531 9.80437 19.3531 9.59087C19.3531 9.37737 19.2805 9.19653 19.1352 9.04837C18.9902 8.90039 18.81 8.82641 18.5948 8.82641H13.4705C13.2552 8.82641 13.075 8.89835 12.9297 9.04224C12.7847 9.18633 12.7122 9.36512 12.7122 9.57862C12.7122 9.79192 12.7847 9.97266 12.9297 10.1208C13.075 10.2688 13.2552 10.3428 13.4705 10.3428H18.5948Z" fill="white"/>
</svg>
