<svg width="24" height="24" viewBox="0 0 24 24" fill="none" xmlns="http://www.w3.org/2000/svg">
<path d="M5.70736 21.0999C5.25719 21.0999 4.87669 20.9416 4.56586 20.6249C4.25503 20.3083 4.09961 19.9307 4.09961 19.4922V6.90767C4.09961 6.46917 4.25503 6.09158 4.56586 5.77492C4.87669 5.45825 5.25719 5.29992 5.70736 5.29992H7.89186V3.45367C7.89186 3.26283 7.95519 3.10358 8.08186 2.97592C8.20853 2.84842 8.36653 2.78467 8.55586 2.78467C8.74536 2.78467 8.90511 2.84842 9.03511 2.97592C9.16528 3.10358 9.23036 3.26283 9.23036 3.45367V5.29992H14.8074V3.43467C14.8074 3.25017 14.869 3.09567 14.9924 2.97117C15.1159 2.84683 15.2691 2.78467 15.4521 2.78467C15.6351 2.78467 15.79 2.84683 15.9169 2.97117C16.0439 3.09567 16.1074 3.25017 16.1074 3.43467V5.29992H18.2919C18.742 5.29992 19.1225 5.45825 19.4334 5.77492C19.7442 6.09158 19.8996 6.46917 19.8996 6.90767V19.4922C19.8996 19.9307 19.7442 20.3083 19.4334 20.6249C19.1225 20.9416 18.742 21.0999 18.2919 21.0999H5.70736ZM5.70736 19.7999H18.2919C18.3689 19.7999 18.4394 19.7678 18.5034 19.7037C18.5675 19.6397 18.5996 19.5692 18.5996 19.4922V11.1077H5.39961V19.4922C5.39961 19.5692 5.43169 19.6397 5.49586 19.7037C5.55986 19.7678 5.63036 19.7999 5.70736 19.7999ZM5.39961 9.80767H18.5996V6.90767C18.5996 6.83067 18.5675 6.76017 18.5034 6.69617C18.4394 6.632 18.3689 6.59992 18.2919 6.59992H5.70736C5.63036 6.59992 5.55986 6.632 5.49586 6.69617C5.43169 6.76017 5.39961 6.83067 5.39961 6.90767V9.80767Z" fill="#111111"/>
</svg>
