<svg width="24" height="24" viewBox="0 0 24 24" fill="none" xmlns="http://www.w3.org/2000/svg">
<path d="M10.45 12.6193L11.8173 13.9865C11.9814 14.157 12.1908 14.2423 12.4453 14.2423C12.6997 14.2423 12.9123 14.157 13.0828 13.9865L16.25 10.8288V12.025C16.25 12.2313 16.3218 12.4038 16.4655 12.5423C16.609 12.6807 16.7872 12.75 17 12.75C17.2063 12.75 17.3829 12.6782 17.5297 12.5345C17.6766 12.391 17.75 12.2128 17.75 12V9.15375C17.75 8.90258 17.6622 8.68917 17.4865 8.5135C17.3108 8.33783 17.0974 8.25 16.8462 8.25H13.975C13.7687 8.25 13.5963 8.32342 13.4578 8.47025C13.3193 8.61708 13.25 8.79367 13.25 9C13.25 9.21283 13.3218 9.391 13.4655 9.5345C13.609 9.67817 13.7872 9.75 14 9.75H15.1712L12.45 12.5058L11.0827 11.1385C10.9123 10.9577 10.6997 10.8672 10.4453 10.8672C10.1908 10.8672 9.98142 10.9577 9.81725 11.1385L6.873 14.073C6.72433 14.218 6.65 14.3953 6.65 14.6048C6.65 14.8144 6.72433 14.9885 6.873 15.127C7.018 15.282 7.19525 15.3595 7.40475 15.3595C7.61442 15.3595 7.7885 15.282 7.927 15.127L10.45 12.6193ZM5.30775 20.5C4.80258 20.5 4.375 20.325 4.025 19.975C3.675 19.625 3.5 19.1974 3.5 18.6923V5.30775C3.5 4.80258 3.675 4.375 4.025 4.025C4.375 3.675 4.80258 3.5 5.30775 3.5H18.6923C19.1974 3.5 19.625 3.675 19.975 4.025C20.325 4.375 20.5 4.80258 20.5 5.30775V18.6923C20.5 19.1974 20.325 19.625 19.975 19.975C19.625 20.325 19.1974 20.5 18.6923 20.5H5.30775ZM5.30775 19H18.6923C18.7692 19 18.8398 18.9679 18.9038 18.9038C18.9679 18.8398 19 18.7692 19 18.6923V5.30775C19 5.23075 18.9679 5.16025 18.9038 5.09625C18.8398 5.03208 18.7692 5 18.6923 5H5.30775C5.23075 5 5.16025 5.03208 5.09625 5.09625C5.03208 5.16025 5 5.23075 5 5.30775V18.6923C5 18.7692 5.03208 18.8398 5.09625 18.9038C5.16025 18.9679 5.23075 19 5.30775 19Z" fill="black"/>
</svg>
