<svg width="24" height="24" viewBox="0 0 24 24" fill="none" xmlns="http://www.w3.org/2000/svg">
<path d="M11.4658 4.99628C11.3221 4.85245 11.2503 4.67428 11.2503 4.46178V2.26953C11.2503 2.05703 11.3222 1.87895 11.466 1.73528C11.6099 1.59145 11.788 1.51953 12.0005 1.51953C12.2132 1.51953 12.3913 1.59145 12.5348 1.73528C12.6784 1.87895 12.7503 2.05703 12.7503 2.26953V4.46178C12.7503 4.67428 12.6784 4.85245 12.5345 4.99628C12.3907 5.13995 12.2125 5.21178 12 5.21178C11.7874 5.21178 11.6093 5.13995 11.4658 4.99628ZM16.7965 7.20403C16.658 7.0657 16.5904 6.89428 16.5935 6.68978C16.5967 6.48528 16.6675 6.30545 16.806 6.15028L18.331 4.59078C18.4815 4.43561 18.6602 4.35803 18.867 4.35803C19.0739 4.35803 19.2555 4.43628 19.412 4.59278C19.5555 4.73628 19.6273 4.9112 19.6273 5.11753C19.6273 5.32403 19.5548 5.4997 19.4098 5.64453L17.8503 7.20403C17.7054 7.34903 17.5298 7.42153 17.3233 7.42153C17.1169 7.42153 16.9414 7.34903 16.7965 7.20403ZM19.5388 12.7503C19.3263 12.7503 19.1481 12.6784 19.0043 12.5345C18.8606 12.3907 18.7888 12.2125 18.7888 12C18.7888 11.7874 18.8606 11.6093 19.0043 11.4658C19.1481 11.3221 19.3263 11.2503 19.5388 11.2503H21.731C21.9435 11.2503 22.1216 11.3222 22.2653 11.466C22.4091 11.6099 22.481 11.788 22.481 12.0005C22.481 12.2132 22.4091 12.3913 22.2653 12.5348C22.1216 12.6784 21.9435 12.7503 21.731 12.7503H19.5388ZM11.4658 22.2653C11.3221 22.1216 11.2503 21.9435 11.2503 21.731V19.5483C11.2503 19.3358 11.3222 19.1577 11.466 19.014C11.6099 18.8702 11.788 18.7983 12.0005 18.7983C12.2132 18.7983 12.3913 18.8702 12.5348 19.014C12.6784 19.1577 12.7503 19.3358 12.7503 19.5483V21.731C12.7503 21.9435 12.6784 22.1216 12.5345 22.2653C12.3907 22.4091 12.2125 22.481 12 22.481C11.7874 22.481 11.6093 22.4091 11.4658 22.2653ZM6.16003 7.20403L4.59078 5.66953C4.43561 5.5197 4.35803 5.33861 4.35803 5.12628C4.35803 4.91411 4.43561 4.73561 4.59078 4.59078C4.73561 4.45228 4.91336 4.38303 5.12403 4.38303C5.3347 4.38303 5.5082 4.45228 5.64453 4.59078L7.21378 6.16003C7.35228 6.29636 7.42153 6.46987 7.42153 6.68053C7.42153 6.8912 7.35295 7.0657 7.21578 7.20403C7.06611 7.34253 6.89153 7.41178 6.69203 7.41178C6.49237 7.41178 6.31503 7.34253 6.16003 7.20403ZM18.3408 19.4098L16.806 17.8503C16.6675 17.6951 16.5967 17.5153 16.5935 17.3108C16.5904 17.1063 16.6574 16.9349 16.7945 16.7965C16.9317 16.658 17.1032 16.5888 17.309 16.5888C17.5147 16.5888 17.6951 16.6612 17.8503 16.806L19.4098 18.3408C19.5586 18.4791 19.6304 18.6531 19.6253 18.8628C19.6201 19.0724 19.5474 19.2548 19.407 19.4098C19.2539 19.5649 19.0719 19.6425 18.8613 19.6425C18.6504 19.6425 18.4769 19.5649 18.3408 19.4098ZM2.26953 12.7503C2.05703 12.7503 1.87895 12.6784 1.73528 12.5345C1.59145 12.3907 1.51953 12.2125 1.51953 12C1.51953 11.7874 1.59145 11.6093 1.73528 11.4658C1.87895 11.3221 2.05703 11.2503 2.26953 11.2503H4.46178C4.67428 11.2503 4.85245 11.3222 4.99628 11.466C5.13995 11.6099 5.21178 11.788 5.21178 12.0005C5.21178 12.2132 5.13995 12.3913 4.99628 12.5348C4.85245 12.6784 4.67428 12.7503 4.46178 12.7503H2.26953ZM4.60028 19.4098C4.46178 19.2649 4.39095 19.0877 4.38778 18.878C4.38461 18.6685 4.45228 18.4945 4.59078 18.356L6.14078 16.806C6.28561 16.6612 6.4587 16.5888 6.66003 16.5888C6.8612 16.5888 7.03936 16.6605 7.19453 16.804C7.3497 16.9605 7.42728 17.141 7.42728 17.3455C7.42728 17.55 7.3497 17.7298 7.19453 17.8848L5.66953 19.4098C5.51436 19.5649 5.33145 19.6425 5.12078 19.6425C4.91012 19.6425 4.73661 19.5649 4.60028 19.4098ZM8.10603 15.8968C7.03553 14.8278 6.50028 13.5297 6.50028 12.0025C6.50028 10.4754 7.03478 9.17653 8.10378 8.10603C9.17278 7.03553 10.4709 6.50028 11.998 6.50028C13.5252 6.50028 14.824 7.03478 15.8945 8.10378C16.965 9.17278 17.5003 10.4709 17.5003 11.998C17.5003 13.5252 16.9658 14.824 15.8968 15.8945C14.8278 16.965 13.5297 17.5003 12.0025 17.5003C10.4754 17.5003 9.17653 16.9658 8.10603 15.8968ZM14.8253 14.8253C15.6086 14.0419 16.0003 13.1003 16.0003 12.0003C16.0003 10.9003 15.6086 9.95862 14.8253 9.17528C14.0419 8.39195 13.1003 8.00028 12.0003 8.00028C10.9003 8.00028 9.95862 8.39195 9.17528 9.17528C8.39195 9.95862 8.00028 10.9003 8.00028 12.0003C8.00028 13.1003 8.39195 14.0419 9.17528 14.8253C9.95862 15.6086 10.9003 16.0003 12.0003 16.0003C13.1003 16.0003 14.0419 15.6086 14.8253 14.8253Z" fill="black"/>
</svg>
