<svg width="28" height="28" viewBox="0 0 28 28" fill="none" xmlns="http://www.w3.org/2000/svg">
<path d="M6.19205 23.9167C5.61202 23.9167 5.11551 23.7102 4.70251 23.2972C4.28951 22.8842 4.08301 22.3877 4.08301 21.8077V8.57066H19.4291V23.9167H6.19205ZM6.41634 21H17.0508L13.4432 16.2214L10.679 19.9457L8.96959 17.6616L6.41634 21ZM5.96776 5.96812H4.08301C4.08301 5.44974 4.26754 5.00601 4.63659 4.63696C5.00565 4.2679 5.44937 4.08337 5.96776 4.08337V5.96812ZM8.5703 5.96812V4.08337H10.4548V5.96812H8.5703ZM13.0573 5.96812V4.08337H14.942V5.96812H13.0573ZM17.5446 5.96812V4.08337H19.4291V5.96812H17.5446ZM22.0316 5.96812V4.08337C22.55 4.08337 22.9937 4.2679 23.3628 4.63696C23.7318 5.00601 23.9163 5.44974 23.9163 5.96812H22.0316ZM22.0316 22.032H23.9163C23.9163 22.5503 23.7318 22.9941 23.3628 23.3631C22.9937 23.7322 22.55 23.9167 22.0316 23.9167V22.032ZM22.0316 19.4294V17.545H23.9163V19.4294H22.0316ZM22.0316 14.9424V13.0577H23.9163V14.9424H22.0316ZM22.0316 10.4551V8.57066H23.9163V10.4551H22.0316Z" fill="white"/>
</svg>
