<svg width="28" height="28" viewBox="0 0 28 28" fill="none" xmlns="http://www.w3.org/2000/svg">
<path d="M9.00546 5.22319L8.3638 3.36761C8.30099 3.19864 8.31373 3.02967 8.402 2.86069C8.49028 2.69172 8.62571 2.57574 8.8083 2.51274C8.97571 2.44993 9.1442 2.46422 9.31376 2.55561C9.48331 2.6468 9.59891 2.77611 9.66055 2.94353L10.3022 4.78103C10.365 4.95019 10.3499 5.11956 10.2567 5.28911C10.1634 5.45867 10.0313 5.57426 9.86034 5.6359C9.67931 5.69871 9.50713 5.69171 9.3438 5.6149C9.18046 5.5381 9.06769 5.40753 9.00546 5.22319ZM13.304 3.79169V2.04169C13.304 1.84083 13.3698 1.67468 13.5012 1.54323C13.6325 1.41179 13.7984 1.34607 13.9991 1.34607C14.2 1.34607 14.3662 1.41179 14.4978 1.54323C14.6295 1.67468 14.6953 1.84083 14.6953 2.04169V3.79169C14.6953 3.99255 14.6296 4.15871 14.4981 4.29015C14.3669 4.4216 14.2009 4.48732 14.0003 4.48732C13.7994 4.48732 13.6331 4.4216 13.5015 4.29015C13.3699 4.15871 13.304 3.99255 13.304 3.79169ZM17.7152 4.78103L18.3388 2.94353C18.401 2.77455 18.5138 2.64787 18.6771 2.56349C18.8405 2.4789 19.0134 2.46801 19.196 2.53082C19.3634 2.59362 19.4942 2.70951 19.5883 2.87849C19.6826 3.04746 19.6984 3.21653 19.6355 3.38569L18.9939 5.22319C18.9322 5.39061 18.8166 5.51992 18.6471 5.61111C18.4775 5.7025 18.3082 5.71679 18.139 5.65398C17.97 5.59098 17.8414 5.47208 17.7531 5.29728C17.6649 5.12228 17.6522 4.95019 17.7152 4.78103ZM3.49734 26.4408C3.29706 26.4721 3.11389 26.4265 2.94784 26.304C2.78198 26.1815 2.68398 26.0207 2.65384 25.8216L2.61796 25.5343C2.58646 25.3338 2.62866 25.1537 2.74455 24.9941C2.86024 24.8343 3.01852 24.7391 3.21938 24.7086L8.65984 23.8764C8.93264 23.8286 9.17434 23.7153 9.38492 23.5367C9.5957 23.3578 9.74367 23.1352 9.82884 22.869L10.8094 19.7774C10.929 19.4303 10.9234 19.0929 10.7925 18.7653C10.6616 18.4378 10.4324 18.1948 10.1048 18.0361L9.33534 20.4324C9.26048 20.6613 9.11766 20.8318 8.90688 20.944C8.69591 21.0562 8.47414 21.0749 8.24159 21C8.00903 20.9252 7.83666 20.7823 7.72446 20.5716C7.61227 20.3606 7.5936 20.1407 7.66846 19.9118L10.0531 12.4069C10.1146 12.208 10.1285 12.0069 10.0948 11.8035C10.0612 11.6001 9.97633 11.4401 9.84021 11.3234L5.64021 19.2792C5.35885 19.7982 4.95985 20.2128 4.44321 20.5232C3.92638 20.8337 3.34713 20.9889 2.70546 20.9889H2.60455C2.39124 20.9889 2.21605 20.9203 2.07896 20.783C1.94169 20.6459 1.87305 20.4708 1.87305 20.2574V19.9702C1.87305 19.7568 1.94169 19.5817 2.07896 19.4446C2.21605 19.3075 2.39124 19.2389 2.60455 19.2389H2.80638C3.07432 19.2389 3.32399 19.1718 3.55538 19.0374C3.78696 18.903 3.96362 18.7137 4.08534 18.4692L8.73859 9.65419C8.87762 9.39053 9.08626 9.21922 9.3645 9.14028C9.64276 9.06114 9.91274 9.09186 10.1745 9.23244L10.4256 9.37594C11.0404 9.73197 11.4667 10.2454 11.7045 10.9162C11.9424 11.5871 11.9535 12.265 11.7381 12.95L10.6432 16.3806C11.4241 16.6886 11.9873 17.2233 12.3328 17.9848C12.6783 18.746 12.7262 19.5267 12.4763 20.3269L11.4846 23.4185C11.2931 23.9958 10.9682 24.4827 10.5099 24.8792C10.0514 25.2755 9.52152 25.5185 8.9203 25.6084L3.49734 26.4408ZM19.0791 25.6194C18.4778 25.5298 17.948 25.2867 17.4895 24.8903C17.0312 24.494 16.7062 24.0072 16.5147 23.4299L15.523 20.3382C15.2732 19.5379 15.321 18.7571 15.6665 17.9959C16.0121 17.2346 16.5753 16.6999 17.3562 16.3917L16.2613 12.9611C16.0458 12.2761 16.057 11.5982 16.2948 10.9273C16.5326 10.2565 16.9589 9.74315 17.5738 9.38732L17.8249 9.24353C18.0866 9.10294 18.3566 9.07222 18.6348 9.15136C18.9131 9.2305 19.1217 9.4019 19.2608 9.66557L23.914 18.4806C24.0357 18.7248 24.2124 18.9141 24.444 19.0485C24.6754 19.1828 24.925 19.25 25.193 19.25H25.3948C25.6081 19.25 25.7833 19.3186 25.9204 19.4557C26.0577 19.5929 26.1263 19.7682 26.1263 19.9815V20.2685C26.1263 20.4818 26.0577 20.6571 25.9204 20.7944C25.7833 20.9315 25.6081 21 25.3948 21H25.2939C24.6522 21 24.073 20.8449 23.5561 20.5345C23.0395 20.2242 22.6405 19.8095 22.3591 19.2906L18.1591 11.3345C18.023 11.4512 17.9381 11.6113 17.9045 11.8149C17.8709 12.0182 17.8848 12.2194 17.9462 12.4183L20.3309 19.9232C20.4057 20.1521 20.3871 20.3719 20.2749 20.5827C20.1627 20.7936 19.9903 20.9364 19.7578 21.0111C19.5252 21.086 19.303 21.0686 19.0913 20.9589C18.8795 20.8492 18.7371 20.6774 18.664 20.4435L17.8946 18.0475C17.567 18.206 17.3377 18.449 17.2068 18.7767C17.076 19.1043 17.0703 19.4416 17.1899 19.7884L18.1705 22.8801C18.2557 23.1463 18.4036 23.3688 18.6144 23.5477C18.825 23.7266 19.0667 23.8399 19.3395 23.8875L24.78 24.7199C24.9808 24.7503 25.1391 24.8454 25.2548 25.0052C25.3707 25.165 25.4129 25.3452 25.3814 25.5457L25.3455 25.8327C25.3154 26.0318 25.2174 26.1927 25.0515 26.3154C24.8855 26.4379 24.7023 26.4834 24.502 26.4519L19.0791 25.6194Z" fill="white"/>
</svg>
