<svg width="27" height="27" viewBox="0 0 27 27" fill="none" xmlns="http://www.w3.org/2000/svg">
<path d="M18.3429 2.28235C18.8449 2.64516 19.0306 3.30329 18.8027 3.87704L15.4952 12.15H21.5998C22.1693 12.15 22.6756 12.5044 22.8696 13.0402C23.0637 13.5759 22.8992 14.175 22.4646 14.5378L10.3146 24.6628C9.8379 25.0594 9.15868 25.0805 8.65665 24.7177C8.15462 24.3548 7.969 23.6967 8.19681 23.123L11.5043 14.85H5.39978C4.83024 14.85 4.324 14.4956 4.12993 13.9598C3.93587 13.4241 4.1004 12.825 4.53493 12.4622L16.6849 2.33719C17.1617 1.94063 17.8409 1.91953 18.3429 2.28235Z" fill="white"/>
</svg>
