<svg width="40" height="40" viewBox="0 0 40 40" fill="none" xmlns="http://www.w3.org/2000/svg">
<rect x="0.5" y="0.5" width="39.0008" height="39" rx="19.5" fill="white"/>
<rect x="0.5" y="0.5" width="39.0008" height="39" rx="19.5" stroke="#E4E4E4"/>
<path d="M14.3651 18.642C13.9851 18.642 13.6771 18.9409 13.6771 19.3097C13.6771 19.6784 13.9851 19.9787 14.3651 19.9787C14.7452 19.9787 15.0532 19.6798 15.0532 19.3097C15.0532 18.9395 14.7452 18.642 14.3651 18.642Z" fill="#1D1D1D"/>
<path d="M21.1679 18.5721C20.7582 18.5721 20.4262 18.8943 20.4262 19.2918C20.4262 19.6894 20.7582 20.0116 21.1679 20.0116C21.5776 20.0116 21.9096 19.6894 21.9096 19.2918C21.9096 18.8943 21.5776 18.5721 21.1679 18.5721Z" fill="#1D1D1D"/>
<path d="M24.9981 19.2918C24.9981 18.9039 25.323 18.5886 25.7229 18.5886C26.1227 18.5886 26.4476 18.9039 26.4476 19.2918C26.4476 19.6798 26.1227 19.9951 25.7229 19.9951C25.323 19.9951 24.9981 19.6798 24.9981 19.2918Z" fill="#1D1D1D"/>
<path fill-rule="evenodd" clip-rule="evenodd" d="M12.6769 12H27.3265C28.8043 12 30.0024 13.1625 30.0024 14.5965V23.0331C30.0024 24.467 28.8043 25.6296 27.3265 25.6296H22.1993L20.439 29.6532C20.439 29.6532 20.3189 30.0014 20.025 30.0014C19.7325 30.0014 19.611 29.6532 19.611 29.6532L17.8507 25.6296H12.6769C11.1991 25.6296 10.001 24.467 10.001 23.0331V14.5965C10.001 13.1625 11.1991 12 12.6769 12ZM14.6322 21.0439C14.6322 21.0439 16.2753 21 16.2838 19.4577H16.2824C16.2824 19.4577 16.5042 17.655 14.7325 17.4946C14.7325 17.4946 13.9187 17.4864 13.6376 17.9525V16.1209C13.6376 16.1209 12.5158 16.1347 12.4409 16.1237V16.1209C12.4353 16.1223 12.4409 16.1237 12.4409 16.1237V20.9136H13.6376V20.6353C13.6376 20.6353 13.9965 21.0439 14.6322 21.0439ZM18.3904 20.9219V17.6427C18.3904 17.6427 18.5246 16.0401 16.654 15.966V17.1107C16.654 17.1107 17.2191 17.2341 17.2191 17.6756V20.9219H18.3904ZM19.2027 19.2932C19.2027 20.2611 20.0815 21.0466 21.1666 21.0466C22.2516 21.0466 23.1304 20.2611 23.1304 19.2932C23.1304 18.3254 22.2516 17.5398 21.1666 17.5398C20.0815 17.5398 19.2027 18.3254 19.2027 19.2932ZM25.8557 22.7123C27.6006 22.7123 27.5836 21.0466 27.5836 21.0466V17.5864H26.3954V17.9374C26.0069 17.4302 25.3754 17.496 25.3754 17.496C23.7746 17.6097 23.7407 19.041 23.7407 19.041V19.5647C23.7407 20.9452 25.1988 21.0466 25.1988 21.0466C26.2273 21.0466 26.37 20.6024 26.37 20.6024C26.3785 21.6992 25.6452 21.6334 25.6452 21.6334H25.3245V22.7123H25.8557Z" fill="#1D1D1D"/>
</svg>
