<svg width="20" height="20" viewBox="0 0 20 20" fill="none" xmlns="http://www.w3.org/2000/svg">
<mask id="mask0_2542_43986" style="mask-type:alpha" maskUnits="userSpaceOnUse" x="0" y="-1" width="21" height="21">
<rect x="0.182251" y="-0.142578" width="20" height="20" fill="#D9D9D9"/>
</mask>
<g mask="url(#mask0_2542_43986)">
<path d="M9.349 14.0273H11.0157V9.02734H9.349V14.0273ZM10.1823 7.36068C10.4184 7.36068 10.6164 7.28082 10.7761 7.12109C10.9358 6.96137 11.0157 6.76345 11.0157 6.52734C11.0157 6.29123 10.9358 6.09332 10.7761 5.93359C10.6164 5.77387 10.4184 5.69401 10.1823 5.69401C9.94622 5.69401 9.7483 5.77387 9.58858 5.93359C9.42886 6.09332 9.349 6.29123 9.349 6.52734C9.349 6.76345 9.42886 6.96137 9.58858 7.12109C9.7483 7.28082 9.94622 7.36068 10.1823 7.36068ZM10.1823 18.194C9.02955 18.194 7.94622 17.9753 6.93233 17.5378C5.91844 17.1003 5.0365 16.5065 4.2865 15.7565C3.5365 15.0065 2.94275 14.1246 2.50525 13.1107C2.06775 12.0968 1.849 11.0135 1.849 9.86068C1.849 8.7079 2.06775 7.62457 2.50525 6.61068C2.94275 5.59679 3.5365 4.71484 4.2865 3.96484C5.0365 3.21484 5.91844 2.62109 6.93233 2.18359C7.94622 1.74609 9.02955 1.52734 10.1823 1.52734C11.3351 1.52734 12.4184 1.74609 13.4323 2.18359C14.4462 2.62109 15.3282 3.21484 16.0782 3.96484C16.8282 4.71484 17.4219 5.59679 17.8594 6.61068C18.2969 7.62457 18.5157 8.7079 18.5157 9.86068C18.5157 11.0135 18.2969 12.0968 17.8594 13.1107C17.4219 14.1246 16.8282 15.0065 16.0782 15.7565C15.3282 16.5065 14.4462 17.1003 13.4323 17.5378C12.4184 17.9753 11.3351 18.194 10.1823 18.194ZM10.1823 16.5273C12.0434 16.5273 13.6198 15.8815 14.9115 14.5898C16.2032 13.2982 16.849 11.7218 16.849 9.86068C16.849 7.99957 16.2032 6.42318 14.9115 5.13151C13.6198 3.83984 12.0434 3.19401 10.1823 3.19401C8.32122 3.19401 6.74483 3.83984 5.45317 5.13151C4.1615 6.42318 3.51567 7.99957 3.51567 9.86068C3.51567 11.7218 4.1615 13.2982 5.45317 14.5898C6.74483 15.8815 8.32122 16.5273 10.1823 16.5273Z" fill="#E60013"/>
</g>
</svg>
