<svg width="28" height="28" viewBox="0 0 28 28" fill="none" xmlns="http://www.w3.org/2000/svg">
<path d="M7.35904 25.0834C6.77726 25.0834 6.28026 24.8774 5.86804 24.4653C5.45601 24.0531 5.25 23.5561 5.25 22.9743V12.0257C5.25 11.444 5.45601 10.947 5.86804 10.5347C6.28026 10.1227 6.77726 9.91671 7.35904 9.91671H8.75V7.58337C8.75 6.1266 9.26081 4.8874 10.2824 3.86579C11.304 2.84418 12.5432 2.33337 14 2.33337C15.4568 2.33337 16.696 2.84418 17.7176 3.86579C18.7392 4.8874 19.25 6.1266 19.25 7.58337V9.91671H20.641C21.2227 9.91671 21.7197 10.1227 22.132 10.5347C22.544 10.947 22.75 11.444 22.75 12.0257V22.9743C22.75 23.5561 22.544 24.0531 22.132 24.4653C21.7197 24.8774 21.2227 25.0834 20.641 25.0834H7.35904ZM7.35904 23.3334H20.641C20.7458 23.3334 20.8318 23.2997 20.8991 23.2325C20.9664 23.1652 21 23.0791 21 22.9743V12.0257C21 11.9209 20.9664 11.8349 20.8991 11.7676C20.8318 11.7003 20.7458 11.6667 20.641 11.6667H7.35904C7.25424 11.6667 7.16819 11.7003 7.10092 11.7676C7.03364 11.8349 7 11.9209 7 12.0257V22.9743C7 23.0791 7.03364 23.1652 7.10092 23.2325C7.16819 23.2997 7.25424 23.3334 7.35904 23.3334ZM15.4461 18.9461C15.8431 18.5489 16.0417 18.0668 16.0417 17.5C16.0417 16.9332 15.8431 16.4512 15.4461 16.054C15.0488 15.6569 14.5668 15.4584 14 15.4584C13.4332 15.4584 12.9512 15.6569 12.5539 16.054C12.1569 16.4512 11.9583 16.9332 11.9583 17.5C11.9583 18.0668 12.1569 18.5489 12.5539 18.9461C12.9512 19.3432 13.4332 19.5417 14 19.5417C14.5668 19.5417 15.0488 19.3432 15.4461 18.9461ZM10.5 9.91671H17.5V7.58337C17.5 6.61115 17.1597 5.78476 16.4792 5.10421C15.7986 4.42365 14.9722 4.08337 14 4.08337C13.0278 4.08337 12.2014 4.42365 11.5208 5.10421C10.8403 5.78476 10.5 6.61115 10.5 7.58337V9.91671Z" fill="#A6A6A6"/>
</svg>
