<svg width="18" height="18" viewBox="0 0 18 18" fill="none" xmlns="http://www.w3.org/2000/svg">
<path d="M8.625 16.5C7.475 16.5 6.5 16.1 5.7 15.3C4.9 14.5 4.5 13.525 4.5 12.375V4.5C4.5 3.675 4.79375 2.96875 5.38125 2.38125C5.96875 1.79375 6.675 1.5 7.5 1.5C8.325 1.5 9.03125 1.79375 9.61875 2.38125C10.2063 2.96875 10.5 3.675 10.5 4.5V11.625C10.5 12.15 10.3187 12.5938 9.95625 12.9563C9.59375 13.3188 9.15 13.5 8.625 13.5C8.1 13.5 7.65625 13.3188 7.29375 12.9563C6.93125 12.5938 6.75 12.15 6.75 11.625V4.5H7.875V11.625C7.875 11.8375 7.94687 12.0156 8.09062 12.1594C8.23438 12.3031 8.4125 12.375 8.625 12.375C8.8375 12.375 9.01562 12.3031 9.15938 12.1594C9.30312 12.0156 9.375 11.8375 9.375 11.625V4.5C9.375 3.975 9.19375 3.53125 8.83125 3.16875C8.46875 2.80625 8.025 2.625 7.5 2.625C6.975 2.625 6.53125 2.80625 6.16875 3.16875C5.80625 3.53125 5.625 3.975 5.625 4.5V12.375C5.625 13.2 5.91875 13.9063 6.50625 14.4938C7.09375 15.0813 7.8 15.375 8.625 15.375C9.45 15.375 10.1562 15.0813 10.7437 14.4938C11.3312 13.9063 11.625 13.2 11.625 12.375V4.5H12.75V12.375C12.75 13.525 12.35 14.5 11.55 15.3C10.75 16.1 9.775 16.5 8.625 16.5Z" fill="#3A8DDE"/>
</svg>
