<svg width="24" height="24" viewBox="0 0 24 24" fill="none" xmlns="http://www.w3.org/2000/svg">
<path d="M16.627 12.7501L11.4578 17.9193C11.3091 18.068 11.2357 18.242 11.2375 18.4413C11.2395 18.6406 11.318 18.8179 11.473 18.9731C11.6282 19.1179 11.8039 19.1929 12 19.1981C12.1962 19.2032 12.3719 19.1282 12.527 18.9731L18.8673 12.6328C18.961 12.5391 19.027 12.4404 19.0653 12.3366C19.1038 12.2327 19.123 12.1206 19.123 12.0001C19.123 11.8796 19.1038 11.7674 19.0653 11.6636C19.027 11.5597 18.961 11.461 18.8673 11.3673L12.527 5.02705C12.3885 4.88855 12.217 4.81772 12.0125 4.81455C11.808 4.81139 11.6282 4.88222 11.473 5.02705C11.318 5.18222 11.2405 5.36039 11.2405 5.56155C11.2405 5.76289 11.318 5.94114 11.473 6.0963L16.627 11.2501H5.25005C5.03722 11.2501 4.85905 11.3219 4.71555 11.4656C4.57188 11.6091 4.50005 11.7872 4.50005 12.0001C4.50005 12.2129 4.57188 12.3911 4.71555 12.5346C4.85905 12.6782 5.03722 12.7501 5.25005 12.7501H16.627Z" fill="black"/>
</svg>
