<svg width="24" height="24" viewBox="0 0 24 24" fill="none" xmlns="http://www.w3.org/2000/svg">
<path d="M5 20.7499C4.23617 20.7499 3.58683 20.4825 3.052 19.9479C2.51733 19.413 2.25 18.7637 2.25 17.9999V10.9999C2.25 10.236 2.51733 9.58669 3.052 9.05185C3.58683 8.51719 4.23617 8.24985 5 8.24985C5.43083 8.24985 5.82567 8.34152 6.1845 8.52485C6.5435 8.70819 6.85508 8.94985 7.11925 9.24985H8.25V6.2306C8.25 5.73343 8.427 5.30785 8.781 4.95385C9.135 4.59985 9.56058 4.42285 10.0578 4.42285H15.9423C16.4394 4.42285 16.865 4.59985 17.219 4.95385C17.573 5.30785 17.75 5.73343 17.75 6.2306V9.24985H19C19.7638 9.24985 20.4132 9.51719 20.948 10.0519C21.4827 10.5867 21.75 11.236 21.75 11.9999V17.9421C21.75 18.4393 21.573 18.8649 21.219 19.2189C20.865 19.5729 20.4394 19.7499 19.9423 19.7499H7.11925C6.85508 20.0499 6.5435 20.2915 6.1845 20.4749C5.82567 20.6582 5.43083 20.7499 5 20.7499ZM5 19.2499C5.3475 19.2499 5.64267 19.1284 5.8855 18.8854C6.1285 18.6425 6.25 18.3474 6.25 17.9999V10.9999C6.25 10.6524 6.1285 10.3572 5.8855 10.1144C5.64267 9.87135 5.3475 9.74985 5 9.74985C4.6525 9.74985 4.35733 9.87135 4.1145 10.1144C3.8715 10.3572 3.75 10.6524 3.75 10.9999V17.9999C3.75 18.3474 3.8715 18.6425 4.1145 18.8854C4.35733 19.1284 4.6525 19.2499 5 19.2499ZM9.75 9.24985H16.25V6.2306C16.25 6.14093 16.2212 6.06719 16.1635 6.00935C16.1058 5.95169 16.0321 5.92285 15.9423 5.92285H10.0578C9.96792 5.92285 9.89417 5.95169 9.8365 6.00935C9.77883 6.06719 9.75 6.14093 9.75 6.2306V9.24985ZM7.75 18.2499H19.9423C20.0321 18.2499 20.1058 18.221 20.1635 18.1634C20.2212 18.1057 20.25 18.0319 20.25 17.9421V11.9999C20.25 11.6524 20.1285 11.3572 19.8855 11.1144C19.6427 10.8714 19.3475 10.7499 19 10.7499H7.75V18.2499ZM15.7125 13.7124C15.9042 13.5207 16 13.2832 16 12.9999C16 12.7165 15.9042 12.479 15.7125 12.2874C15.5208 12.0957 15.2833 11.9999 15 11.9999C14.7167 11.9999 14.4792 12.0957 14.2875 12.2874C14.0958 12.479 14 12.7165 14 12.9999C14 13.2832 14.0958 13.5207 14.2875 13.7124C14.4792 13.904 14.7167 13.9999 15 13.9999C15.2833 13.9999 15.5208 13.904 15.7125 13.7124ZM18.7125 13.7124C18.9042 13.5207 19 13.2832 19 12.9999C19 12.7165 18.9042 12.479 18.7125 12.2874C18.5208 12.0957 18.2833 11.9999 18 11.9999C17.7167 11.9999 17.4792 12.0957 17.2875 12.2874C17.0958 12.479 17 12.7165 17 12.9999C17 13.2832 17.0958 13.5207 17.2875 13.7124C17.4792 13.904 17.7167 13.9999 18 13.9999C18.2833 13.9999 18.5208 13.904 18.7125 13.7124ZM15.7125 16.7124C15.9042 16.5207 16 16.2832 16 15.9999C16 15.7165 15.9042 15.479 15.7125 15.2874C15.5208 15.0957 15.2833 14.9999 15 14.9999C14.7167 14.9999 14.4792 15.0957 14.2875 15.2874C14.0958 15.479 14 15.7165 14 15.9999C14 16.2832 14.0958 16.5207 14.2875 16.7124C14.4792 16.904 14.7167 16.9999 15 16.9999C15.2833 16.9999 15.5208 16.904 15.7125 16.7124ZM18.7125 16.7124C18.9042 16.5207 19 16.2832 19 15.9999C19 15.7165 18.9042 15.479 18.7125 15.2874C18.5208 15.0957 18.2833 14.9999 18 14.9999C17.7167 14.9999 17.4792 15.0957 17.2875 15.2874C17.0958 15.479 17 15.7165 17 15.9999C17 16.2832 17.0958 16.5207 17.2875 16.7124C17.4792 16.904 17.7167 16.9999 18 16.9999C18.2833 16.9999 18.5208 16.904 18.7125 16.7124ZM9.90375 16.9999H12.0963C12.3523 16.9999 12.5669 16.9133 12.7402 16.7401C12.9134 16.5668 13 16.3521 13 16.0961V12.9036C13 12.6476 12.9134 12.4329 12.7402 12.2596C12.5669 12.0864 12.3523 11.9999 12.0963 11.9999H9.90375C9.64775 11.9999 9.43308 12.0864 9.25975 12.2596C9.08658 12.4329 9 12.6476 9 12.9036V16.0961C9 16.3521 9.08658 16.5668 9.25975 16.7401C9.43308 16.9133 9.64775 16.9999 9.90375 16.9999Z" fill="black"/>
</svg>
