<svg width="24" height="24" viewBox="0 0 24 24" fill="none" xmlns="http://www.w3.org/2000/svg">
<path d="M12.0746 21.4998C10.7451 21.4998 9.49836 21.2476 8.33436 20.7431C7.17019 20.2386 6.15478 19.553 5.28811 18.6863C4.42144 17.8197 3.73586 16.8043 3.23136 15.6401C2.72686 14.4761 2.47461 13.2293 2.47461 11.8998C2.47461 9.98701 2.99253 8.24185 4.02836 6.66435C5.06436 5.08668 6.45736 3.91259 8.20736 3.14209C8.38303 3.07809 8.56219 3.05376 8.74486 3.06909C8.92753 3.08443 9.08294 3.13959 9.21111 3.23459C9.31878 3.31909 9.40369 3.43993 9.46586 3.59709C9.52803 3.75409 9.55911 3.95434 9.55911 4.19784C9.61178 5.55301 9.89928 6.84085 10.4216 8.06135C10.9441 9.28185 11.6849 10.3716 12.6439 11.3306C13.6029 12.2896 14.6952 13.0303 15.9209 13.5528C17.1464 14.0752 18.4367 14.3627 19.7919 14.4153C20.0457 14.4153 20.2434 14.4413 20.3851 14.4931C20.5268 14.5451 20.6399 14.6249 20.7246 14.7326C20.8194 14.8608 20.8797 15.0213 20.9054 15.2143C20.931 15.4072 20.9118 15.5863 20.8476 15.7518C20.0874 17.5018 18.9134 18.8973 17.3256 19.9383C15.7378 20.9793 13.9874 21.4998 12.0746 21.4998ZM12.0746 19.9998C13.5413 19.9998 14.8996 19.6332 16.1496 18.8998C17.3996 18.1665 18.3829 17.1582 19.0996 15.8748C17.6663 15.7415 16.3079 15.3774 15.0246 14.7826C13.7413 14.1878 12.5913 13.382 11.5746 12.3653C10.5579 11.3487 9.74961 10.2003 9.14961 8.92009C8.54961 7.63993 8.19128 6.28318 8.07461 4.84984C6.79128 5.56651 5.78711 6.55401 5.06211 7.81235C4.33711 9.07068 3.97461 10.4332 3.97461 11.8998C3.97461 14.1498 4.76211 16.0623 6.33711 17.6373C7.91211 19.2123 9.82461 19.9998 12.0746 19.9998ZM14.2226 7.16509L12.8439 5.78635C12.663 5.60568 12.5726 5.39476 12.5726 5.1536C12.5726 4.9126 12.663 4.70176 12.8439 4.52109L14.2226 3.14209C14.4034 2.96143 14.6144 2.87109 14.8554 2.87109C15.0964 2.87109 15.3073 2.96143 15.4881 3.14209L16.8669 4.52109C17.0477 4.70176 17.1381 4.9126 17.1381 5.1536C17.1381 5.39476 17.0477 5.60568 16.8669 5.78635L15.4881 7.16509C15.3073 7.34593 15.0964 7.43635 14.8554 7.43635C14.6144 7.43635 14.4034 7.34593 14.2226 7.16509ZM19.3284 10.2711L18.7381 9.69034C18.5829 9.53518 18.5054 9.35626 18.5054 9.1536C18.5054 8.9511 18.5829 8.77226 18.7381 8.61709L19.3284 8.03635C19.4835 7.88135 19.6608 7.80384 19.8601 7.80384C20.0594 7.80384 20.2367 7.88135 20.3919 8.03635L20.9726 8.61709C21.1278 8.77226 21.2054 8.9511 21.2054 9.1536C21.2054 9.35626 21.1278 9.53518 20.9726 9.69034L20.3919 10.2711C20.2367 10.4261 20.0594 10.5036 19.8601 10.5036C19.6608 10.5036 19.4835 10.4261 19.3284 10.2711Z" fill="black"/>
</svg>
