<svg width="28" height="28" viewBox="0 0 28 28" fill="none" xmlns="http://www.w3.org/2000/svg">
<path d="M6.99987 24.6166C6.3792 24.6166 5.85459 24.4024 5.42604 23.9738C4.99748 23.5452 4.7832 23.0206 4.7832 22.4V20.2101C4.7832 19.6925 4.96637 19.2505 5.3327 18.8842C5.69923 18.5179 6.1413 18.3347 6.65891 18.3347H7.5832V5.25901C7.5832 4.7414 7.76637 4.29933 8.1327 3.9328C8.49923 3.56647 8.9413 3.3833 9.45891 3.3833H21.3408C21.8584 3.3833 22.3005 3.56647 22.667 3.9328C23.0334 4.29933 23.2165 4.7414 23.2165 5.25901V22.05C23.2165 22.7679 22.9682 23.3751 22.4716 23.8717C21.975 24.3683 21.3678 24.6166 20.6499 24.6166H6.99987ZM20.6437 23.1C20.9395 23.1 21.1895 22.9993 21.3936 22.7981C21.5978 22.5968 21.6999 22.3475 21.6999 22.05V5.25901C21.6999 5.1542 21.6662 5.06816 21.599 5.00088C21.5317 4.93361 21.4456 4.89997 21.3408 4.89997H9.45891C9.35411 4.89997 9.26806 4.93361 9.20079 5.00088C9.13351 5.06816 9.09987 5.1542 9.09987 5.25901V18.3347H17.7242C18.242 18.3347 18.684 18.5179 19.0504 18.8842C19.4167 19.2505 19.5999 19.6925 19.5999 20.2101V22.05C19.5999 22.3475 19.6999 22.5968 19.9 22.7981C20.1001 22.9993 20.348 23.1 20.6437 23.1ZM11.4825 10.1409C11.2672 10.1409 11.0871 10.069 10.942 9.92509C10.7968 9.78101 10.7242 9.60222 10.7242 9.38872C10.7242 9.17522 10.7968 8.99448 10.942 8.84651C11.0871 8.69834 11.2672 8.62426 11.4825 8.62426H19.3172C19.5325 8.62426 19.7126 8.6963 19.8577 8.84038C20.003 8.98427 20.0756 9.16297 20.0756 9.37647C20.0756 9.58997 20.003 9.7708 19.8577 9.91897C19.7126 10.0669 19.5325 10.1409 19.3172 10.1409H11.4825ZM11.4825 13.5065C11.2672 13.5065 11.0871 13.4344 10.942 13.2903C10.7968 13.1465 10.7242 12.9678 10.7242 12.7543C10.7242 12.5408 10.7968 12.3599 10.942 12.2118C11.0871 12.0638 11.2672 11.9898 11.4825 11.9898H19.3172C19.5325 11.9898 19.7126 12.0617 19.8577 12.2056C20.003 12.3497 20.0756 12.5285 20.0756 12.742C20.0756 12.9555 20.003 13.1362 19.8577 13.2842C19.7126 13.4324 19.5325 13.5065 19.3172 13.5065H11.4825ZM6.99987 23.1H18.0832V20.2101C18.0832 20.1055 18.0496 20.0196 17.9823 19.9523C17.915 19.8848 17.829 19.8511 17.7242 19.8511H6.65891C6.55411 19.8511 6.46806 19.8848 6.40079 19.9523C6.33351 20.0196 6.29987 20.1055 6.29987 20.2101V22.4C6.29987 22.5983 6.36695 22.7645 6.50112 22.8987C6.63529 23.0329 6.80154 23.1 6.99987 23.1ZM6.99987 23.1H6.29987H18.0832H6.99987Z" fill="white"/>
</svg>
