<svg width="20" height="22" viewBox="0 0 20 22" fill="none" xmlns="http://www.w3.org/2000/svg">
<path fill-rule="evenodd" clip-rule="evenodd" d="M0.509035 1.67121C0.54375 1.3785 0.646075 1.09795 0.807876 0.851856C0.969678 0.605764 1.18649 0.400921 1.44109 0.253609C1.69568 0.106297 1.98103 0.0205789 2.27445 0.00327006C2.56787 -0.0140388 2.86127 0.0375384 3.13133 0.153901C4.49647 0.739167 7.55582 2.13014 11.4378 4.3771C15.3212 6.62534 18.0527 8.58869 19.2392 9.47948C20.2521 10.2414 20.2547 11.7522 19.2405 12.5167C18.0656 13.4023 15.3674 15.3399 11.4378 17.6165C7.5044 19.8931 4.48104 21.2673 3.12876 21.8448C1.96415 22.3437 0.660717 21.587 0.509035 20.3275C0.331644 18.8553 0 15.5126 0 10.9981C0 6.48611 0.330359 3.14469 0.509035 1.67121Z" fill="white"/>
</svg>
