<svg width="40" height="40" viewBox="0 0 40 40" fill="none" xmlns="http://www.w3.org/2000/svg">
<rect x="0.5" y="0.5" width="39" height="39" rx="19.5" fill="white"/>
<rect x="0.5" y="0.5" width="39" height="39" rx="19.5" stroke="#E4E4E4"/>
<path d="M20 13C20 13 26.254 12.9998 27.8135 13.4473C28.6737 13.694 29.3525 14.4201 29.582 15.3418C30.0002 17.0136 30 20.5 30 20.5C30 20.501 30.0002 23.9879 29.582 25.6582C29.3525 26.5799 28.6737 27.306 27.8135 27.5527C26.254 28.0002 20 28 20 28C19.9984 28 13.7469 28.0002 12.1865 27.5527C11.3263 27.306 10.6475 26.5799 10.418 25.6582C9.99985 23.9867 10 20.501 10 20.5C10 20.5 9.99979 17.0136 10.418 15.3418C10.6475 14.4201 11.3263 13.694 12.1865 13.4473C13.7458 12.9998 19.9984 13 20 13ZM18 23L23 20.5L18 18V23Z" fill="#1D1D1D"/>
</svg>
