<svg width="28" height="28" viewBox="0 0 28 28" fill="none" xmlns="http://www.w3.org/2000/svg">
<path d="M7.02716 20.1742C8.01883 19.4385 9.09916 18.8574 10.2682 18.431C11.437 18.0047 12.681 17.7916 14.0003 17.7916C15.3196 17.7916 16.5637 18.0047 17.7325 18.431C18.9015 18.8574 19.9818 19.4385 20.9735 20.1742C21.6988 19.377 22.2734 18.4542 22.6975 17.4057C23.1216 16.3573 23.3337 15.222 23.3337 14C23.3337 11.4138 22.4246 9.21176 20.6066 7.39371C18.7885 5.57565 16.5864 4.66663 14.0003 4.66663C11.4142 4.66663 9.21213 5.57565 7.39408 7.39371C5.57602 9.21176 4.66699 11.4138 4.66699 14C4.66699 15.222 4.87903 16.3573 5.30312 17.4057C5.7272 18.4542 6.30188 19.377 7.02716 20.1742ZM11.3059 13.7777C10.5744 13.0464 10.2087 12.1483 10.2087 11.0833C10.2087 10.0183 10.5744 9.12018 11.3059 8.38888C12.0372 7.65738 12.9354 7.29163 14.0003 7.29163C15.0653 7.29163 15.9634 7.65738 16.6947 8.38888C17.4262 9.12018 17.792 10.0183 17.792 11.0833C17.792 12.1483 17.4262 13.0464 16.6947 13.7777C15.9634 14.5092 15.0653 14.875 14.0003 14.875C12.9354 14.875 12.0372 14.5092 11.3059 13.7777ZM14.0003 25.0833C12.4613 25.0833 11.0175 24.7939 9.66908 24.215C8.3206 23.6361 7.14762 22.8479 6.15012 21.8502C5.15242 20.8527 4.36415 19.6797 3.78528 18.3312C3.20642 16.9827 2.91699 15.539 2.91699 14C2.91699 12.4609 3.20642 11.0172 3.78528 9.66871C4.36415 8.32024 5.15242 7.14725 6.15012 6.14975C7.14762 5.15206 8.3206 4.36378 9.66908 3.78492C11.0175 3.20606 12.4613 2.91663 14.0003 2.91663C15.5394 2.91663 16.9831 3.20606 18.3316 3.78492C19.68 4.36378 20.853 5.15206 21.8505 6.14975C22.8482 7.14725 23.6365 8.32024 24.2154 9.66871C24.7942 11.0172 25.0837 12.4609 25.0837 14C25.0837 15.539 24.7942 16.9827 24.2154 18.3312C23.6365 19.6797 22.8482 20.8527 21.8505 21.8502C20.853 22.8479 19.68 23.6361 18.3316 24.215C16.9831 24.7939 15.5394 25.0833 14.0003 25.0833ZM17.0459 22.8252C18.0234 22.4863 18.8913 22.0125 19.6496 21.4039C18.8913 20.8175 18.0347 20.3605 17.0797 20.0331C16.1246 19.7054 15.0982 19.5416 14.0003 19.5416C12.9025 19.5416 11.8742 19.7035 10.9154 20.0273C9.95656 20.3512 9.10178 20.8101 8.35103 21.4039C9.10937 22.0125 9.97727 22.4863 10.9547 22.8252C11.9322 23.1639 12.9474 23.3333 14.0003 23.3333C15.0532 23.3333 16.0684 23.1639 17.0459 22.8252ZM15.4563 12.5393C15.8468 12.149 16.042 11.6637 16.042 11.0833C16.042 10.5029 15.8468 10.0175 15.4563 9.62729C15.0661 9.23685 14.5807 9.04163 14.0003 9.04163C13.4199 9.04163 12.9346 9.23685 12.5443 9.62729C12.1539 10.0175 11.9587 10.5029 11.9587 11.0833C11.9587 11.6637 12.1539 12.149 12.5443 12.5393C12.9346 12.9297 13.4199 13.125 14.0003 13.125C14.5807 13.125 15.0661 12.9297 15.4563 12.5393Z" fill="#A6A6A6"/>
</svg>
