<svg width="28" height="28" viewBox="0 0 28 28" fill="none" xmlns="http://www.w3.org/2000/svg">
<path d="M5.83301 4.66663V11.8752V11.846V23.3333V4.66663ZM9.33301 16.0416H12.1263C12.3742 16.0416 12.582 15.9577 12.7496 15.7899C12.9174 15.6221 13.0013 15.4143 13.0013 15.1663C13.0013 14.9182 12.9174 14.7105 12.7496 14.543C12.582 14.3754 12.3742 14.2916 12.1263 14.2916H9.33301C9.08509 14.2916 8.87733 14.3755 8.70972 14.5433C8.54191 14.7111 8.45801 14.919 8.45801 15.1669C8.45801 15.415 8.54191 15.6228 8.70972 15.7902C8.87733 15.9578 9.08509 16.0416 9.33301 16.0416ZM9.33301 20.7083H10.9372C11.1851 20.7083 11.393 20.6244 11.5608 20.4566C11.7284 20.2888 11.8122 20.0809 11.8122 19.833C11.8122 19.5849 11.7284 19.3771 11.5608 19.2097C11.393 19.0421 11.1851 18.9583 10.9372 18.9583H9.33301C9.08509 18.9583 8.87733 19.0422 8.70972 19.21C8.54191 19.3778 8.45801 19.5857 8.45801 19.8336C8.45801 20.0817 8.54191 20.2895 8.70972 20.4569C8.87733 20.6245 9.08509 20.7083 9.33301 20.7083ZM6.19205 25.0833C5.60269 25.0833 5.10384 24.8791 4.69551 24.4708C4.28717 24.0625 4.08301 23.5636 4.08301 22.9743V5.02567C4.08301 4.43631 4.28717 3.93746 4.69551 3.52913C5.10384 3.12079 5.60269 2.91663 6.19205 2.91663H14.5853C14.8698 2.91663 15.141 2.97126 15.3988 3.08054C15.6566 3.18963 15.8813 3.33993 16.0728 3.53146L20.9682 8.42679C21.1597 8.61832 21.31 8.843 21.4191 9.10084C21.5284 9.35867 21.583 9.62982 21.583 9.91429V11.494C21.583 11.743 21.4991 11.9481 21.3313 12.1091C21.1635 12.2703 20.9556 12.3509 20.7077 12.3509C20.4596 12.3509 20.2518 12.2671 20.0844 12.0995C19.9168 11.9317 19.833 11.7238 19.833 11.4759V9.91663H15.6327C15.3352 9.91663 15.0859 9.816 14.8849 9.61475C14.6836 9.4135 14.583 9.16413 14.583 8.86663V4.66663H6.19205C6.10222 4.66663 6.01997 4.70406 5.9453 4.77892C5.87044 4.85358 5.83301 4.93583 5.83301 5.02567V22.9743C5.83301 23.0641 5.87044 23.1463 5.9453 23.221C6.01997 23.2959 6.10222 23.3333 6.19205 23.3333H12.4404C12.6883 23.3333 12.8961 23.4172 13.0637 23.585C13.2315 23.7528 13.3154 23.9607 13.3154 24.2086C13.3154 24.4567 13.2315 24.6645 13.0637 24.8319C12.8961 24.9995 12.6883 25.0833 12.4404 25.0833H6.19205ZM21.4494 21.4477C22.047 20.8486 22.3457 20.1152 22.3457 19.2476C22.3457 18.3802 22.0463 17.6477 21.4474 17.0502C20.8483 16.4527 20.115 16.1539 19.2473 16.1539C18.3799 16.1539 17.6475 16.4534 17.0499 17.0523C16.4524 17.6513 16.1536 18.3847 16.1536 19.2523C16.1536 20.1197 16.4531 20.8522 17.052 21.4497C17.6511 22.0472 18.3844 22.346 19.252 22.346C20.1194 22.346 20.8519 22.0466 21.4494 21.4477ZM25.2006 26.0569C24.9517 26.0569 24.7464 25.9762 24.5848 25.8148L22.0048 23.2233C21.6114 23.5105 21.1803 23.7278 20.7115 23.8752C20.2425 24.0224 19.7552 24.096 19.2497 24.096C17.9035 24.096 16.7593 23.6249 15.817 22.6826C14.8748 21.7403 14.4036 20.5961 14.4036 19.25C14.4036 17.9038 14.8748 16.7596 15.817 15.8173C16.7593 14.8751 17.9035 14.4039 19.2497 14.4039C20.5958 14.4039 21.74 14.8751 22.6823 15.8173C23.6246 16.7596 24.0957 17.9038 24.0957 19.25C24.0957 19.7555 24.0221 20.2428 23.8749 20.7118C23.7275 21.1806 23.5102 21.6117 23.2231 22.005L25.8145 24.5851C25.9759 24.7461 26.0566 24.9509 26.0566 25.1994C26.0566 25.4481 25.9761 25.6532 25.8151 25.8148C25.6541 25.9762 25.4492 26.0569 25.2006 26.0569Z" fill="white"/>
</svg>
