<svg width="28" height="28" viewBox="0 0 28 28" fill="none" xmlns="http://www.w3.org/2000/svg">
<path d="M1.45801 18.375V17.9398C1.45801 16.9272 1.99535 16.2604 3.07005 15.9396C4.14474 15.6188 5.06573 15.4583 5.83301 15.4583C6.60029 15.4583 7.52127 15.6188 8.59597 15.9396C9.67066 16.2604 10.208 16.9272 10.208 17.9398V18.375H1.45801ZM5.83301 13.7083C5.2662 13.7083 4.78417 13.5098 4.38692 13.1128C3.98987 12.7155 3.79134 12.2335 3.79134 11.6667C3.79134 11.0999 3.98987 10.6178 4.38692 10.2206C4.78417 9.82354 5.2662 9.62501 5.83301 9.62501C6.39981 9.62501 6.88184 9.82354 7.27909 10.2206C7.67615 10.6178 7.87467 11.0999 7.87467 11.6667C7.87467 12.2335 7.67615 12.7155 7.27909 13.1128C6.88184 13.5098 6.39981 13.7083 5.83301 13.7083ZM11.5004 15.4607C11.3149 15.4607 11.1526 15.3911 11.0136 15.2518C10.8744 15.1128 10.8048 14.9506 10.8048 14.7651C10.8048 14.6634 10.8736 14.5003 11.0113 14.2759C11.1592 14.0741 11.2587 13.849 11.3096 13.6007C11.3606 13.3524 11.3861 13.1011 11.3861 12.8468C11.3861 12.5924 11.3587 12.3433 11.3041 12.0995C11.2495 11.8559 11.148 11.6368 10.9999 11.4424C10.9388 11.3654 10.8891 11.2846 10.8508 11.2C10.8127 11.1154 10.7937 11.027 10.7937 10.9346C10.7937 10.7347 10.8595 10.5689 10.9911 10.4373C11.1228 10.3057 11.2907 10.2398 11.4948 10.2398C11.6205 10.2398 11.7343 10.2761 11.8364 10.3486C11.9385 10.4212 12.0268 10.5083 12.1015 10.61C12.317 10.93 12.4834 11.282 12.6008 11.6658C12.7183 12.0496 12.777 12.4425 12.777 12.8444C12.777 13.2514 12.7201 13.6445 12.6064 14.0236C12.4926 14.4028 12.3281 14.7583 12.1129 15.0903C12.0365 15.189 11.9486 15.2755 11.8492 15.3496C11.7497 15.4236 11.6334 15.4607 11.5004 15.4607ZM13.8786 17.8456C13.6791 17.8456 13.5104 17.7797 13.3723 17.6479C13.2342 17.5162 13.1652 17.3497 13.1652 17.1483C13.1652 17.0551 13.1843 16.9667 13.2224 16.8828C13.2607 16.799 13.3104 16.7191 13.3714 16.6431C13.8426 16.0911 14.1922 15.4883 14.4203 14.8348C14.6483 14.181 14.7624 13.5139 14.7624 12.8333C14.7624 12.1528 14.6483 11.4887 14.4203 10.841C14.1922 10.1933 13.8426 9.59721 13.3714 9.05276C13.3104 8.97537 13.2607 8.89798 13.2224 8.82059C13.1843 8.7432 13.1652 8.65804 13.1652 8.56509C13.1652 8.36384 13.2308 8.19439 13.3621 8.05672C13.4935 7.91905 13.6597 7.85022 13.8605 7.85022C13.972 7.85022 14.0753 7.87384 14.1706 7.92109C14.2661 7.96815 14.3512 8.0328 14.4261 8.11505C15.0108 8.79697 15.4449 9.54325 15.7284 10.3539C16.0119 11.1647 16.1536 11.9908 16.1536 12.8322C16.1536 13.6733 16.0081 14.5008 15.717 15.3146C15.4261 16.1283 14.9958 16.8799 14.4261 17.5694C14.3512 17.6517 14.2695 17.7183 14.1808 17.7692C14.0921 17.8202 13.9914 17.8456 13.8786 17.8456ZM17.7913 18.375V17.9398C17.7913 16.9272 18.3287 16.2604 19.4034 15.9396C20.4781 15.6188 21.3991 15.4583 22.1663 15.4583C22.9336 15.4583 23.8546 15.6188 24.9293 15.9396C26.004 16.2604 26.5413 16.9272 26.5413 17.9398V18.375H17.7913ZM22.1663 13.7083C21.5995 13.7083 21.1175 13.5098 20.7203 13.1128C20.3232 12.7155 20.1247 12.2335 20.1247 11.6667C20.1247 11.0999 20.3232 10.6178 20.7203 10.2206C21.1175 9.82354 21.5995 9.62501 22.1663 9.62501C22.7331 9.62501 23.2152 9.82354 23.6124 10.2206C24.0095 10.6178 24.208 11.0999 24.208 11.6667C24.208 12.2335 24.0095 12.7155 23.6124 13.1128C23.2152 13.5098 22.7331 13.7083 22.1663 13.7083Z" fill="white"/>
</svg>
