<svg width="32" height="32" viewBox="0 0 32 32" fill="none" xmlns="http://www.w3.org/2000/svg">
<path fill-rule="evenodd" clip-rule="evenodd" d="M15.9995 26.0182C18.608 23.6831 20.6041 21.4433 21.9879 19.2988C23.3717 17.1544 24.0635 15.2762 24.0635 13.6642C24.0635 11.2335 23.2913 9.23527 21.7469 7.6695C20.2024 6.10372 18.2867 5.32083 15.9995 5.32083C13.7124 5.32083 11.7967 6.10372 10.2522 7.6695C8.70777 9.23527 7.93555 11.2335 7.93555 13.6642C7.93555 15.2762 8.62744 17.1544 10.0112 19.2988C11.395 21.4433 13.3911 23.6831 15.9995 26.0182ZM18.4099 13.4105C18.4099 14.0754 18.1743 14.6433 17.7032 15.1142C17.2323 15.5851 16.6644 15.8205 15.9995 15.8205C15.3347 15.8205 14.7668 15.5851 14.2959 15.1142C13.8248 14.6433 13.5892 14.0754 13.5892 13.4105C13.5892 12.7456 13.8248 12.1776 14.2959 11.7065C14.7668 11.2356 15.3347 11.0002 15.9995 11.0002C16.6644 11.0002 17.2323 11.2356 17.7032 11.7065C18.1743 12.1776 18.4099 12.7456 18.4099 13.4105Z" fill="#9BA4AD"/>
<path fill-rule="evenodd" clip-rule="evenodd" d="M21.9879 19.2988C20.6041 21.4433 18.608 23.6831 15.9995 26.0182C13.3911 23.6831 11.395 21.4433 10.0112 19.2988C8.62744 17.1544 7.93555 15.2762 7.93555 13.6642C7.93555 11.2335 8.70777 9.23527 10.2522 7.6695C11.7967 6.10372 13.7124 5.32083 15.9995 5.32083C18.2867 5.32083 20.2024 6.10372 21.7469 7.6695C23.2913 9.23527 24.0635 11.2335 24.0635 13.6642C24.0635 15.2762 23.3717 17.1544 21.9879 19.2988ZM14.5149 27.3695C14.7251 27.5575 14.9602 27.6964 15.2202 27.7862C15.48 27.8757 15.7398 27.9205 15.9995 27.9205C16.2593 27.9205 16.5213 27.8735 16.7855 27.7795C17.0495 27.6855 17.2867 27.5445 17.4969 27.3565C18.6935 26.2541 19.8132 25.1207 20.8559 23.9565C21.8985 22.7925 22.8029 21.6246 23.5689 20.4528C24.3347 19.281 24.9419 18.1237 25.3905 16.9808C25.8392 15.8382 26.0635 14.7326 26.0635 13.6642C26.0635 10.5873 25.0683 8.09627 23.0779 6.19116C21.0872 4.28605 18.7278 3.3335 15.9995 3.3335C13.2713 3.3335 10.9119 4.28605 8.92121 6.19116C6.93077 8.09627 5.93555 10.5873 5.93555 13.6642C5.93555 14.7326 6.15988 15.8404 6.60855 16.9875C7.05721 18.1344 7.66666 19.2916 8.43688 20.4592C9.20688 21.6267 10.1132 22.7946 11.1559 23.9628C12.1988 25.1313 13.3184 26.2668 14.5149 27.3695Z" fill="#9BA4AD"/>
</svg>
