<svg width="32" height="32" viewBox="0 0 32 32" fill="none" xmlns="http://www.w3.org/2000/svg">
<path d="M21.5663 17.3337L15.0329 23.8671C14.7663 24.1337 14.6385 24.4448 14.6496 24.8004C14.6607 25.1559 14.7996 25.4671 15.0663 25.7337C15.3329 25.9782 15.6441 26.1059 15.9996 26.1171C16.3552 26.1282 16.6663 26.0004 16.9329 25.7337L25.7329 16.9337C25.8663 16.8004 25.9607 16.6559 26.0163 16.5004C26.0718 16.3448 26.0996 16.1782 26.0996 16.0004C26.0996 15.8226 26.0718 15.6559 26.0163 15.5004C25.9607 15.3448 25.8663 15.2004 25.7329 15.0671L16.9329 6.26706C16.6885 6.02261 16.3829 5.90039 16.0163 5.90039C15.6496 5.90039 15.3329 6.02261 15.0663 6.26706C14.7996 6.53372 14.6663 6.85039 14.6663 7.21706C14.6663 7.58372 14.7996 7.90039 15.0663 8.16706L21.5663 14.6671H6.66628C6.2885 14.6671 5.97183 14.7948 5.71628 15.0504C5.46072 15.3059 5.33294 15.6226 5.33294 16.0004C5.33294 16.3782 5.46072 16.6948 5.71628 16.9504C5.97183 17.2059 6.2885 17.3337 6.66628 17.3337H21.5663Z" fill="white"/>
</svg>
