<svg width="24" height="24" viewBox="0 0 24 24" fill="none" xmlns="http://www.w3.org/2000/svg">
<path d="M5.30775 20.5C4.80908 20.5 4.38308 20.3234 4.02975 19.9703C3.67658 19.6169 3.5 19.1909 3.5 18.6923V5.30775C3.5 4.80908 3.67658 4.38308 4.02975 4.02975C4.38308 3.67658 4.80908 3.5 5.30775 3.5H18.6923C19.1909 3.5 19.6169 3.67658 19.9703 4.02975C20.3234 4.38308 20.5 4.80908 20.5 5.30775V18.6923C20.5 19.1909 20.3234 19.6169 19.9703 19.9703C19.6169 20.3234 19.1909 20.5 18.6923 20.5H5.30775ZM16.9193 19H18.6923C18.7821 19 18.8558 18.9712 18.9135 18.9135C18.9712 18.8558 19 18.7821 19 18.6923V16.9193L16.9193 19ZM5.70575 19H7.848L10.848 16H12.5308L9.53075 19H11.5348L14.5348 16H16.2172L13.2172 19H15.2365L18.2365 16H19V5.30775C19 5.21792 18.9712 5.14417 18.9135 5.0865C18.8558 5.02883 18.7821 5 18.6923 5H5.30775C5.21792 5 5.14417 5.02883 5.0865 5.0865C5.02883 5.14417 5 5.21792 5 5.30775V18.023L7.023 16H8.70575L5.70575 19ZM10.675 10.6443L8.16725 13.127C8.02875 13.2653 7.85892 13.3355 7.65775 13.3375C7.45642 13.3393 7.28142 13.2659 7.13275 13.1173C6.99425 12.9788 6.925 12.8048 6.925 12.5953C6.925 12.3856 6.99425 12.2115 7.13275 12.073L10.0423 9.1635C10.2231 8.98267 10.434 8.89225 10.675 8.89225C10.916 8.89225 11.1269 8.98267 11.3078 9.1635L12.675 10.5307L15.8328 7.373C15.9713 7.23467 16.1427 7.1645 16.347 7.1625C16.5515 7.16067 16.7282 7.23408 16.877 7.38275C17.0153 7.52125 17.0845 7.69367 17.0845 7.9C17.0845 8.10633 17.0153 8.27875 16.877 8.41725L13.3077 12.0115C13.1269 12.1923 12.916 12.2828 12.675 12.2828C12.434 12.2828 12.2231 12.1923 12.0423 12.0115L10.675 10.6443ZM5 18.6923V5V19V18.6923Z" fill="black"/>
</svg>
